<?xml version="1.0" encoding="UTF-8" standalone="no"?>
<!-- Created with Inkscape (http://www.inkscape.org/) -->

<svg
   xmlns:dc="http://purl.org/dc/elements/1.1/"
   xmlns:cc="http://creativecommons.org/ns#"
   xmlns:rdf="http://www.w3.org/1999/02/22-rdf-syntax-ns#"
   xmlns:svg="http://www.w3.org/2000/svg"
   xmlns="http://www.w3.org/2000/svg"
   xmlns:sodipodi="http://sodipodi.sourceforge.net/DTD/sodipodi-0.dtd"
   xmlns:inkscape="http://www.inkscape.org/namespaces/inkscape"
   version="1.1"
   id="svg4644"
   xml:space="preserve"
   width="2.7081702in"
   height="0.81990474in"
   viewBox="0 0 259.98434 78.710855"
   sodipodi:docname="Signature.svg"
   inkscape:version="0.92.2 5c3e80d, 2017-08-06"><metadata
     id="metadata4650"><rdf:RDF><cc:Work
         rdf:about=""><dc:format>image/svg+xml</dc:format><dc:type
           rdf:resource="http://purl.org/dc/dcmitype/StillImage" /><dc:title></dc:title></cc:Work></rdf:RDF></metadata><defs
     id="defs4648"><clipPath
       clipPathUnits="userSpaceOnUse"
       id="clipPath4672"><rect
         id="rect4674"
         width="194.98827"
         height="59.033142"
         x="12.995434"
         y="-787.45538"
         style="stroke-width:0.75"
         transform="scale(1,-1)" /></clipPath></defs><sodipodi:namedview
     pagecolor="#ffffff"
     bordercolor="#666666"
     borderopacity="1"
     objecttolerance="10"
     gridtolerance="10"
     guidetolerance="10"
     inkscape:pageopacity="0"
     inkscape:pageshadow="2"
     inkscape:window-width="908"
     inkscape:window-height="530"
     id="namedview4646"
     showgrid="false"
     inkscape:zoom="1"
     inkscape:cx="246.55273"
     inkscape:cy="9.5121546"
     inkscape:window-x="107"
     inkscape:window-y="28"
     inkscape:window-maximized="0"
     inkscape:current-layer="g4652"
     units="in"
     fit-margin-top="0"
     fit-margin-left="0"
     fit-margin-right="0"
     fit-margin-bottom="0" /><g
     id="g4652"
     inkscape:groupmode="layer"
     inkscape:label="Signature"
     transform="matrix(1.3333333,0,0,-1.3333333,-26.867954,1050.8946)"><g
       id="g4654" /><g
       id="g4656"
       transform="translate(7.1555325,0.71555325)"
       clip-path="url(#clipPath4672)"><path
         d="M 0,0 H 612 V 792 H 0 Z"
         style="fill:#ffffff;fill-opacity:1;fill-rule:nonzero;stroke:none"
         id="path4658"
         inkscape:connector-curvature="0" /><path
         d="m 20.64849,746.1988 c 0,-0.2936 -0.238,-0.5316 -0.53158,-0.5316 -0.29358,0 -0.53158,0.238 -0.53158,0.5316 0,0.2936 0.238,0.5315 0.53158,0.5315 0.29358,0 0.53158,-0.2379 0.53158,-0.5315 z m -0.78974,0.4647 c 0.5691,0.3514 1.13364,0.7101 1.69362,1.076 l 0.56026,-0.838 c -0.5709,-0.4018 -1.15009,-0.7909 -1.73756,-1.1674 m 1.1773,2.0054 c 0.96969,0.6273 1.89064,1.3194 2.76287,2.0763 l 0.59368,-0.6522 c -0.87526,-0.8242 -1.80735,-1.5783 -2.79629,-2.2621 m 2.20261,2.9143 c 0.9384,0.8314 1.82453,1.7155 2.65839,2.6521 l 0.55563,-0.4796 c -0.81941,-0.9919 -1.69286,-1.9334 -2.62034,-2.8247 m 2.06471,3.3043 c 1.0219,1.1458 2.02429,2.3084 3.00718,3.4879 l 0.47984,-0.3952 c -0.97047,-1.1962 -1.9476,-2.387 -2.93139,-3.5723 m 2.45155,3.9675 c 1.17954,1.4177 2.33499,2.8549 3.46635,4.3114 l 0.44248,-0.3411 c -1.12198,-1.4717 -2.26497,-2.9268 -3.42899,-4.3655 m 2.98651,4.7066 c 1.31568,1.697 2.60135,3.4164 3.85703,5.1583 l 0.41557,-0.2982 c -1.24936,-1.7539 -2.52607,-3.4876 -3.83012,-5.2012 m 3.41455,5.4994 c 1.36267,1.8907 2.68518,3.8091 3.96754,5.7552 l 0.39859,-0.2613 c -1.27778,-1.9574 -2.59463,-3.8881 -3.95056,-5.7921 m 3.55197,6.0534 c 1.21743,1.8476 2.42573,3.7012 3.62489,5.5607 l 0.40706,-0.2644 c -1.21284,-1.8514 -2.42396,-3.704 -3.63336,-5.5576 m 3.2263,5.822 c 0.96036,1.4899 1.91683,2.9823 2.8694,4.4772 l 0.47486,-0.311 c -0.98802,-1.4709 -1.96708,-2.9478 -2.9372,-4.4306 m 2.46234,4.7416 c 0.61867,0.9736 1.24046,1.9452 1.86537,2.9148 l 0.60419,-0.433 c -0.69681,-0.9079 -1.36171,-1.8388 -1.9947,-2.7928 m 1.39051,3.2258 c 0.31414,0.4821 0.62104,0.9688 0.9207,1.46 l 0.77532,-0.5815 c -0.37841,-0.425 -0.74235,-0.8621 -1.09183,-1.3115 m 0.31651,1.893 c 0.08137,0.1422 0.19496,0.2484 0.34075,0.3187 0.11529,0.0413 0.23218,0.0465 0.35066,0.0155 0.09605,-0.0319 0.1789,-0.0845 0.24854,-0.158 0.05056,-0.0597 0.08916,-0.1264 0.1158,-0.2 0.01661,-0.0535 0.02752,-0.1081 0.03271,-0.1639 -7e-5,-0.2081 -0.0312,-0.4122 -0.09339,-0.6123 l -1.01688,0.2596 c 0.02447,0.1014 0.04508,0.2035 0.06183,0.3063 0.25879,-0.1057 0.51759,-0.2114 0.77638,-0.3171 -0.01528,-0.007 -0.02897,-0.0171 -0.04108,-0.0303 m 0.21975,-0.2185 c -0.25853,-0.8911 -0.53462,-1.7767 -0.82828,-2.657 l -0.87795,0.2619 c 0.24058,0.8821 0.47036,1.767 0.68935,2.6547 m 0.1886,-2.9166 c -0.52333,-1.6109 -1.03379,-3.226 -1.53138,-4.8451 l -0.65251,0.1864 c 0.43087,1.6414 0.86619,3.2816 1.30594,4.9206 m -0.65343,-5.107 c -0.63604,-2.0692 -1.23321,-4.1495 -1.7915,-6.241 l -0.50068,0.1315 c 0.54183,2.0999 1.08839,4.1985 1.63967,6.2959 M 47.396,771.0503 c -0.56401,-2.1099 -1.07201,-4.2332 -1.524,-6.3699 l -0.48795,0.1033 c 0.45964,2.1431 0.96339,4.2758 1.51127,6.3981 M 45.872,764.6804 c -0.40061,-1.8874 -0.73924,-3.7858 -1.01588,-5.6951 l -0.53469,0.0783 c 0.30019,1.9167 0.6544,3.8234 1.06262,5.7201 m -0.52793,-5.7984 c -0.21955,-1.5204 -0.37248,-3.0473 -0.45879,-4.5807 l -0.60687,0.0349 c 0.11389,1.5485 0.29088,3.0898 0.53097,4.6241 m 0.0759,-4.659 c -0.06326,-1.1919 -0.05723,-2.3834 0.01808,-3.5743 l -0.67603,-0.0418 c -0.05192,1.2178 -0.0349,2.4348 0.05108,3.651 m 0.62495,-3.6092 c 0.05993,-0.9103 0.1725,-1.8139 0.33772,-2.7108 l -0.75761,-0.1299 c -0.12727,0.929 -0.21265,1.862 -0.25614,2.7989 m 1.01375,-2.669 c 0.08432,-0.4572 0.2067,-0.9037 0.36713,-1.3395 0.03898,-0.0974 0.08267,-0.1927 0.13106,-0.2858 l -0.79722,-0.3764 c -0.04864,0.1162 -0.09242,0.2342 -0.13134,0.3541 -0.14834,0.4972 -0.25742,1.0031 -0.32724,1.5177 m 1.2558,-1.4954 c 0.12946,-0.2591 0.32106,-0.4553 0.57481,-0.5885 l -0.39621,-0.849 c -0.10332,0.0492 -0.20153,0.107 -0.29464,0.1736 -0.30496,0.2351 -0.53202,0.531 -0.68118,0.8875 m 1.64238,-0.6366 c 0,-0.2587 -0.20974,-0.4685 -0.46846,-0.4685 -0.25872,0 -0.46845,0.2098 -0.46845,0.4685 0,0.2587 0.20973,0.4684 0.46845,0.4684 0.25872,0 0.46846,-0.2097 0.46846,-0.4684 z"
         style="fill:#000000;fill-opacity:1;fill-rule:nonzero;stroke:none"
         id="path4660"
         inkscape:connector-curvature="0" /><path
         d="m 34.11128,756.4675 c 0,-0.2673 -0.21675,-0.4841 -0.48412,-0.4841 -0.26737,0 -0.48412,0.2168 -0.48412,0.4841 0,0.2674 0.21675,0.4842 0.48412,0.4842 0.26737,0 0.48412,-0.2168 0.48412,-0.4842 z m -0.49839,0.4838 c 0.93805,0.1277 1.8743,0.268 2.80877,0.4208 l 0.15162,-0.8854 c -0.88738,-0.1668 -1.77639,-0.3243 -2.66703,-0.4725 -0.09258,-0.0149 -0.18561,-0.0252 -0.27909,-0.0308 m 2.7945,1.3887 c 1.73544,0.2739 3.46047,0.6022 5.17511,0.9851 l 0.1774,-0.7441 c -1.72189,-0.4295 -3.45552,-0.805 -5.20089,-1.1264 m 5.02349,1.8705 c 1.49832,0.3344 2.98613,0.7101 4.46344,1.1273 l 0.19137,-0.6562 c -1.48429,-0.4351 -2.97676,-0.8401 -4.47741,-1.2152 m 4.28604,1.8714 c 1.12686,0.3194 2.24464,0.6679 3.35335,1.0452 l 0.21505,-0.6021 c -1.11457,-0.4003 -2.24025,-0.7667 -3.37703,-1.0993 m 3.16198,1.7014 c 1.05671,0.3764 2.09513,0.798 3.11525,1.2651 l 0.25305,-0.5589 c -1.03579,-0.4731 -2.08687,-0.9092 -3.15325,-1.3083 m 3.33345,1.5877 c 0,-0.1694 -0.13732,-0.3067 -0.30673,-0.3067 -0.1694,0 -0.30673,0.1373 -0.30673,0.3067 0,0.1694 0.13733,0.3068 0.30673,0.3068 0.16941,0 0.30673,-0.1374 0.30673,-0.3068 z"
         style="fill:#000000;fill-opacity:1;fill-rule:nonzero;stroke:none"
         id="path4662"
         inkscape:connector-curvature="0" /><path
         d="m 58.54543,751.9889 c 0,-0.2466 -0.19986,-0.4464 -0.44641,-0.4464 -0.24654,0 -0.44641,0.1998 -0.44641,0.4464 0,0.2465 0.19987,0.4464 0.44641,0.4464 0.24655,0 0.44641,-0.1999 0.44641,-0.4464 z m -0.03054,-0.1623 c -0.49599,-1.2397 -1.00365,-2.4745 -1.523,-3.7046 l -0.821,0.3435 c 0.5152,1.224 1.0193,2.4526 1.51227,3.6857 m -0.69127,-4.0292 c -0.53987,-1.2675 -1.05096,-2.5465 -1.53328,-3.8367 l -0.85569,0.3133 c 0.50416,1.2964 1.02682,2.5854 1.56797,3.8669 m -0.71228,-4.1802 c -0.16062,-0.4256 -0.27375,-0.8629 -0.33939,-1.3118 -0.0093,-0.0899 -0.01128,-0.1799 -0.006,-0.2701 l -0.95677,-0.0531 c -0.0033,0.127 0.0022,0.2536 0.01644,0.3798 0.08419,0.5384 0.22753,1.0612 0.43001,1.5685 m 0.51032,-1.8952 c 0.01325,-0.2172 0.11021,-0.3845 0.29088,-0.5018 l -0.51577,-0.831 c -0.17996,0.112 -0.33219,0.2537 -0.45666,0.4251 -0.17172,0.2586 -0.26345,0.5435 -0.27522,0.8546 m 1.24765,-0.4487 c 0.06301,-0.0377 0.1291,-0.069 0.19827,-0.0939 0.32675,-0.0983 0.66151,-0.1451 1.0043,-0.1404 l 0.01538,-0.9233 c -0.37225,-0.0198 -0.74084,0.007 -1.10574,0.0799 -0.09915,0.0231 -0.1967,0.0516 -0.29263,0.0857 -0.11672,0.0434 -0.22851,0.0971 -0.33535,0.161 m 1.71834,0.5967 c 0.15546,-7e-4 0.3106,0.006 0.46541,0.0206 0.57936,0.0682 1.14439,0.1997 1.69508,0.3944 l 0.2803,-0.7636 c -0.60823,-0.2437 -1.23533,-0.4183 -1.88131,-0.5238 -0.18058,-0.0254 -0.36195,-0.0424 -0.5441,-0.0509 m 2.14511,1.3383 c 0.94164,0.3357 1.84507,0.7546 2.71031,1.2566 l 0.36935,-0.6373 c -0.89797,-0.5326 -1.83109,-0.9936 -2.79936,-1.3829 m 2.43001,2.0202 c 0.95243,0.5454 1.88929,1.1164 2.81057,1.713 l 0.38986,-0.5992 c -0.93024,-0.6055 -1.87393,-1.1892 -2.83108,-1.7511 m 2.44122,2.3503 c 0.85273,0.5568 1.7317,1.0684 2.6369,1.5348 l 0.3288,-0.6665 c -0.88965,-0.4345 -1.74826,-0.9236 -2.57584,-1.4675 m 2.24704,2.134 c 0.73399,0.3813 1.49631,0.6922 2.28696,0.9325 l 0.20881,-0.783 c -0.74841,-0.2015 -1.47073,-0.4735 -2.16697,-0.816 m 1.95816,1.599 c 0.61901,0.1837 1.25075,0.2837 1.89522,0.3 l -0.01849,-0.888 c -0.56454,0.0135 -1.12051,-0.0515 -1.66792,-0.195 m 1.68641,1.083 c 0.58262,-4e-4 1.14423,-0.1091 1.68483,-0.3262 l -0.35288,-0.8626 c -0.43336,0.1755 -0.8835,0.2758 -1.35044,0.3008 m 1.70332,0.5618 c 0.55588,-0.2323 1.09639,-0.4963 1.62154,-0.792 l -0.42872,-0.7962 c -0.50483,0.2642 -1.02006,0.506 -1.5457,0.7256 m 1.97442,0.0706 c 0.63351,-0.3426 1.2896,-0.6351 1.96826,-0.8775 l -0.27422,-0.7897 c -0.73026,0.2356 -1.43785,0.526 -2.12276,0.871 m 2.39698,-0.0813 c 0.86029,-0.2926 1.74494,-0.4628 2.65397,-0.5106 l -0.0395,-0.7583 c -0.9852,0.0297 -1.9481,0.1894 -2.88869,0.4792 m 2.92819,0.2791 c 1.15424,-0.0437 2.28783,0.094 3.40076,0.413 l 0.18629,-0.6605 c -1.18332,-0.3607 -2.39217,-0.531 -3.62655,-0.5108 m 3.44026,1.1713 c 1.41785,0.4286 2.73208,1.0728 3.9427,1.9327 l 0.35096,-0.5009 c -1.25746,-0.9206 -2.62658,-1.618 -4.10737,-2.0923 m 3.75641,2.5932 c 1.51073,1.0844 2.84646,2.3548 4.0072,3.811 l 0.41961,-0.3368 c -1.1785,-1.5115 -2.53711,-2.8365 -4.07585,-3.9751 m 3.65624,4.3119 c 1.33741,1.6722 2.48209,3.4676 3.43403,5.3864 l 0.4469,-0.2222 c -0.96575,-1.9524 -2.11952,-3.786 -3.46132,-5.501 m 3.01442,5.7232 c 0.95148,1.8999 1.72047,3.8705 2.30699,5.9121 l 0.4848,-0.1362 c -0.60056,-2.0698 -1.38219,-4.0692 -2.34489,-5.9981 m 1.86009,6.1343 c 0.50293,1.7627 0.86135,3.5538 1.07527,5.3734 l 0.54473,-0.0617 c -0.24197,-1.844 -0.62037,-3.66 -1.1352,-5.4479 m 0.59047,5.5096 c 0.16838,1.4177 0.16325,2.8336 -0.01539,4.2477 l 0.6085,0.0869 c 0.1624,-1.4662 0.14627,-2.9317 -0.04838,-4.3963 m -0.56012,4.3094 c -0.14629,1.0683 -0.4689,2.0789 -0.96784,3.0315 l 0.59765,0.3253 c 0.513,-1.0326 0.83923,-2.1226 0.97869,-3.2699 m -1.57634,2.9446 c -0.41691,0.7616 -0.97898,1.3919 -1.68621,1.8911 l 0.40693,0.6012 c 0.79778,-0.5715 1.42342,-1.2938 1.87693,-2.167 m -2.28386,1.5658 c -0.66237,0.4435 -1.38403,0.744 -2.16498,0.9014 l 0.15099,0.7449 c 0.87378,-0.1931 1.68075,-0.5414 2.42092,-1.0451 m -2.57191,0.3002 c -0.18489,0.0342 -0.37131,0.0535 -0.55926,0.0579 -0.58129,-0.005 -1.1329,-0.1374 -1.65485,-0.397 l -0.33662,0.6643 c 0.63922,0.3385 1.31954,0.5051 2.04097,0.4997 0.2224,-0.009 0.44265,-0.0355 0.66075,-0.08 m -2.3651,-1.084 c -0.20112,-0.1017 -0.39279,-0.219 -0.57499,-0.3517 -0.70067,-0.5624 -1.29785,-1.2209 -1.79154,-1.9755 l -0.55236,0.3699 c 0.52875,0.8396 1.17386,1.5748 1.93532,2.2058 0.2051,0.1551 0.42075,0.2937 0.64695,0.4158 m -2.02991,-2.9915 c -0.9537,-1.4947 -1.71021,-3.0853 -2.26951,-4.7717 l -0.53325,0.1806 c 0.54398,1.7493 1.29411,3.4029 2.2504,4.961 m -1.71715,-5.1416 c -0.71142,-2.0627 -1.27449,-4.1653 -1.68922,-6.3077 l -0.48702,0.0941 c 0.41521,2.1655 0.96288,4.2969 1.64299,6.3942 m -1.15597,-6.4883 c -0.39761,-2.0115 -0.6888,-4.0381 -0.87357,-6.0798 l -0.52144,0.0466 c 0.20916,2.0561 0.51182,4.0985 0.90799,6.1273 m -0.38655,-6.1739 c -0.14172,-1.6224 -0.21226,-3.2477 -0.21162,-4.876 h -0.59308 c 0.02625,1.6446 0.12067,3.2855 0.28326,4.9226 m 0.30982,-4.9226 c -0.0024,-1.1778 0.08499,-2.3484 0.26229,-3.5117 l -0.68878,-0.1029 c -0.13149,1.201 -0.18702,2.4059 -0.16659,3.6146 M 83.006,750.3 c 0.11949,-0.7717 0.33749,-1.5134 0.65398,-2.225 l -0.74303,-0.3378 c -0.30739,0.7928 -0.5073,1.6127 -0.59973,2.4599 m 1.34276,-2.1221 c 0.1222,-0.2578 0.27576,-0.4949 0.46068,-0.7114 0.10778,-0.1211 0.23222,-0.221 0.37334,-0.2998 l -0.46454,-0.7898 c -0.20594,0.1346 -0.38709,0.2971 -0.54345,0.4874 -0.23407,0.299 -0.42375,0.6243 -0.56906,0.9758 m 1.57705,-0.6734 c 0.06748,-0.0345 0.13771,-0.0619 0.21066,-0.0823 0.25069,-0.0554 0.50026,-0.0471 0.74871,0.025 l 0.25609,-0.9062 c -0.33179,-0.1006 -0.66894,-0.1271 -1.01145,-0.0794 -0.1051,0.0184 -0.2081,0.0449 -0.30903,0.0794 -0.12571,0.0458 -0.24555,0.1037 -0.35952,0.1737 m 1.42391,0.7325 c 0.11433,0.0317 0.22603,0.071 0.3351,0.1178 0.4437,0.2103 0.85358,0.4742 1.22965,0.7919 l 0.55776,-0.647 c -0.43042,-0.4029 -0.90795,-0.7372 -1.43257,-1.003 -0.14093,-0.065 -0.28554,-0.1203 -0.43385,-0.1659 m 1.30866,1.8159 c 0.70826,0.5884 1.38053,1.2155 2.01681,1.8814 l 0.54916,-0.5168 c -0.6402,-0.6998 -1.3096,-1.3703 -2.00821,-2.0116 m 1.45905,2.5284 c 0.65984,0.6835 1.30016,1.3847 1.92098,2.1037 l 0.56729,-0.5011 c -0.64431,-0.7084 -1.29068,-1.4148 -1.93911,-2.1194 m 1.37182,2.6205 c 0.45012,0.5334 0.92058,1.048 1.41136,1.544 l 0.58188,-0.6858 c -0.09861,-0.0724 -0.19454,-0.1481 -0.28779,-0.2273 -0.40157,-0.3548 -0.78096,-0.7322 -1.13816,-1.132 m 0.84407,2.0451 c 0.19268,0.1942 0.40354,0.3657 0.6326,0.5143 0.13063,0.0805 0.27099,0.1356 0.42106,0.1653 l 0.13019,-1.0495 c -0.02396,0.004 -0.04813,4e-4 -0.07251,-0.01 -0.18943,-0.0786 -0.36592,-0.1807 -0.52946,-0.3062 m 0.47178,1.3654 c 0.10296,0.0148 0.2052,0.0109 0.30672,-0.0117 0.07974,-0.02 0.15534,-0.0504 0.2268,-0.091 0.05616,-0.0336 0.10864,-0.0723 0.15741,-0.1159 0.16236,-0.1613 0.28192,-0.3504 0.35868,-0.5673 l -1.01829,-0.4073 c -0.02528,0.0602 -0.05614,0.1172 -0.09258,0.171 m 1.11087,0.2363 c 0.17629,-0.4561 0.36485,-0.9071 0.56571,-1.353 l -0.89601,-0.4396 c -0.24834,0.4524 -0.47767,0.9142 -0.68799,1.3853 m 1.584,-0.9457 c 0.31789,-0.671 0.70745,-1.2983 1.16868,-1.8817 l -0.65999,-0.5363 c -0.53688,0.6114 -1.00511,1.2708 -1.4047,1.9784 m 2.06469,-1.4421 c 0.5941,-0.744 1.28869,-1.3793 2.08376,-1.906 l -0.40657,-0.6174 c -0.87385,0.5519 -1.65291,1.2143 -2.33718,1.9871 m 2.74375,-1.3697 c 0.93519,-0.6177 1.92881,-1.1208 2.98081,-1.5092 l -0.2317,-0.6342 c -1.10872,0.3919 -2.16061,0.9005 -3.15568,1.526 m 3.38738,-0.8918 c 1.203,-0.4377 2.4357,-0.7633 3.6983,-0.977 l -0.1061,-0.6267 c -1.303,0.2123 -2.5776,0.5354 -3.8239,0.9695 m 3.93,-0.3428 c 1.393,-0.2363 2.7946,-0.3982 4.2049,-0.4855 l -0.0369,-0.6126 c -1.4329,0.0832 -2.8576,0.2403 -4.2741,0.4714 m 4.311,0.1412 c 1.4555,-0.0878 2.9107,-0.0839 4.3657,0.0117 l 0.0405,-0.6029 c -1.4806,-0.0978 -2.9616,-0.105 -4.4431,-0.0214 m 4.4026,0.6243 c 1.4334,0.0963 2.8582,0.2654 4.2742,0.5073 l 0.1031,-0.5948 c -1.4368,-0.2453 -2.8824,-0.4172 -4.3368,-0.5154 m 4.2337,1.1102 c 1.3607,0.2372 2.6896,0.5926 3.9869,1.0662 l 0.2123,-0.5827 c -1.3347,-0.4756 -2.7001,-0.835 -4.0961,-1.0783 m 3.8838,1.661 c 1.2688,0.4699 2.4953,1.032 3.6795,1.6863 l 0.3096,-0.5572 c -1.2139,-0.6699 -2.4728,-1.2405 -3.7768,-1.7118 m 3.4672,2.269 c 1.1698,0.6551 2.2559,1.4278 3.2583,2.3181 l 0.4243,-0.4755 c -1.0374,-0.9221 -2.1618,-1.722 -3.373,-2.3998 m 2.9487,2.8753 c 0.9926,0.8877 1.8854,1.8663 2.6785,2.9358 l 0.5111,-0.3755 c -0.8183,-1.1061 -1.7401,-2.118 -2.7653,-3.0358 m 2.2542,3.4113 c 0.7733,1.0614 1.3813,2.2104 1.8238,3.4469 l 0.5915,-0.209 c -0.4606,-1.2963 -1.0953,-2.5008 -1.9042,-3.6134 m 1.3127,3.8224 c 0.4252,1.1871 0.638,2.4106 0.6385,3.6703 l 0.6343,0.006 c -0.008,-1.3328 -0.235,-2.6278 -0.6813,-3.8849 m 0.047,3.8793 c -0.0298,1.2165 -0.336,2.3597 -0.9187,3.4295 l 0.5581,0.3059 c 0.6389,-1.162 0.9706,-2.4053 0.9949,-3.7298 m -1.553,3.4239 c -0.6517,1.1515 -1.5057,2.1276 -2.5617,2.9282 l 0.3698,0.487 c 1.1324,-0.847 2.0491,-1.8835 2.75,-3.1093 m -3.1198,2.6223 c -1.1784,0.8879 -2.4383,1.6396 -3.7798,2.2552 l 0.2422,0.5295 c 1.3851,-0.626 2.6876,-1.3919 3.9074,-2.2977 m -4.1496,1.7682 c -1.3204,0.6123 -2.6736,1.1404 -4.0596,1.5841 l 0.1794,0.5615 c 1.4033,-0.4639 2.7775,-1.0026 4.1224,-1.6161 m -4.3018,1.0546 c -1.1572,0.3624 -2.3128,0.7304 -3.4665,1.1039 l 0.217,0.6301 c 1.1364,-0.4101 2.2793,-0.8009 3.4289,-1.1725 m -3.6459,0.5424 c -0.8312,0.2558 -1.6308,0.5864 -2.3986,0.9918 l 0.3954,0.6591 c 0.7057,-0.4131 1.4458,-0.7534 2.2202,-1.0208 m -2.6156,0.3617 c -0.1562,0.0911 -0.3054,0.1923 -0.4477,0.3037 -0.4757,0.3974 -0.8716,0.8634 -1.1877,1.3983 l 0.6969,0.4223 c 0.266,-0.4512 0.5929,-0.852 0.9807,-1.2023 0.1122,-0.0951 0.2299,-0.1828 0.3532,-0.2629 m -1.2749,1.2541 c 0,-0.225 -0.1824,-0.4075 -0.4075,-0.4075 -0.225,0 -0.4074,0.1825 -0.4074,0.4075 0,0.225 0.1824,0.4074 0.4074,0.4074 0.2251,0 0.4075,-0.1824 0.4075,-0.4074 z"
         style="fill:#000000;fill-opacity:1;fill-rule:nonzero;stroke:none"
         id="path4664"
         inkscape:connector-curvature="0" /><path
         d="m 144.9829,751.0239 c 0,-0.2502 -0.2028,-0.453 -0.4529,-0.453 -0.2502,0 -0.453,0.2028 -0.453,0.453 0,0.2501 0.2028,0.4529 0.453,0.4529 0.2501,0 0.4529,-0.2028 0.4529,-0.4529 z m -0.5861,-0.4329 c -0.2126,0.067 -0.4006,0.1757 -0.5643,0.3261 -0.1091,0.1143 -0.1947,0.244 -0.257,0.3893 -0.0426,0.1149 -0.0713,0.2332 -0.0861,0.355 -0.009,0.0991 -0.0101,0.1983 -0.004,0.2977 0.0362,0.335 0.1203,0.6579 0.2525,0.9688 l 0.7932,-0.3109 c -0.0842,-0.2174 -0.1387,-0.4415 -0.1636,-0.6725 -0.003,-0.0564 -0.002,-0.1127 0.004,-0.1688 0.007,-0.0553 0.0228,-0.1075 0.0481,-0.1568 0.061,-0.082 0.1424,-0.1361 0.2441,-0.1621 m -0.9257,1.4711 c 0.1111,0.2641 0.2401,0.5191 0.387,0.7651 0.5181,0.8074 1.1596,1.5024 1.9247,2.085 l 0.4752,-0.6004 c -0.6762,-0.5302 -1.2369,-1.1614 -1.6819,-1.8936 -0.1203,-0.2148 -0.2242,-0.4371 -0.3118,-0.667 m 1.5185,3.161 c 1.0787,0.8438 2.118,1.7338 3.1177,2.67 l 0.4753,-0.4967 c -0.9957,-0.9735 -2.035,-1.8981 -3.1178,-2.7737 m 2.6425,3.2704 c 0.9841,0.9194 1.896,1.9055 2.7357,2.9582 l 0.5136,-0.4086 c -0.8648,-1.0699 -1.7895,-2.0853 -2.774,-3.0463 m 2.2604,3.4549 c 0.803,1.0258 1.4955,2.1215 2.0777,3.2871 l 0.5812,-0.2854 c -0.5898,-1.2157 -1.3049,-2.3524 -2.1453,-3.4103 m 1.5641,3.6957 c 0.584,1.1764 1.0485,2.3982 1.3934,3.6654 l 0.5987,-0.16 c -0.3525,-1.3074 -0.8228,-2.571 -1.4109,-3.7908 m 0.8122,3.9508 c 0.3321,1.2456 0.5385,2.5117 0.6192,3.7983 l 0.614,-0.0364 c -0.083,-1.3281 -0.2945,-2.6354 -0.6345,-3.9219 m 0.0205,3.9583 c 0.0787,1.1713 -0.0181,2.3271 -0.2902,3.4673 l 0.6335,0.1552 c 0.2618,-1.2063 0.352,-2.4259 0.2707,-3.6589 m -0.9042,3.5037 c -0.233,0.9483 -0.6258,1.8235 -1.1786,2.6257 l 0.5823,0.4135 c 0.5883,-0.884 0.9982,-1.8454 1.2298,-2.884 m -1.8121,2.4705 c -0.471,0.6635 -1.0679,1.1795 -1.7906,1.5479 l 0.3364,0.6829 c 0.8265,-0.4385 1.5053,-1.0442 2.0365,-1.8173 m -2.3729,1.1344 c -0.6659,0.3224 -1.3672,0.5139 -2.1038,0.5744 l 0.0571,0.7878 c 0.8377,-0.0731 1.632,-0.2995 2.3831,-0.6793 m -2.4402,-0.1085 c -0.7309,0.0419 -1.4429,-0.0561 -2.136,-0.294 l -0.2568,0.749 c 0.7948,0.2749 1.6114,0.3858 2.4499,0.3328 m -2.1931,-1.0818 c -0.7839,-0.2901 -1.483,-0.7203 -2.0973,-1.2908 l -0.5161,0.5592 c 0.6844,0.6569 1.4699,1.1504 2.3566,1.4806 m -1.8405,-2.0398 c -0.7325,-0.6871 -1.3358,-1.4742 -1.8097,-2.3614 l -0.6248,0.3332 c 0.4987,0.9677 1.1382,1.8302 1.9184,2.5874 m -1.2936,-2.9206 c -0.532,-1.0215 -0.8619,-2.1056 -0.9895,-3.2523 l -0.6584,0.0744 c 0.126,1.234 0.467,2.4044 1.0231,3.5111 m -0.3647,-3.5855 c -0.0344,-0.3102 -0.049,-0.6213 -0.0437,-0.9333 0.043,-1.0039 0.2528,-1.9725 0.6293,-2.9059 l -0.5758,-0.2312 c -0.4143,0.9999 -0.6496,2.0395 -0.7059,3.1188 -0.009,0.3428 0.003,0.6848 0.0377,1.026 m 1.244,-3.9136 c 0.6602,-1.5426 1.5478,-2.9436 2.6628,-4.203 l -0.4248,-0.3701 c -1.1743,1.2965 -2.1122,2.7438 -2.8138,4.3419 m 3.2386,-3.9718 c 1.3789,-1.5603 2.9088,-2.9561 4.5898,-4.1875 l -0.3006,-0.4082 c -1.7202,1.2436 -3.2915,2.6521 -4.714,4.2256 m 5.0146,-3.8174 c 1.7791,-1.3193 3.638,-2.5142 5.5767,-3.5848 l -0.2366,-0.4309 c -1.9555,1.0847 -3.8358,2.2872 -5.6407,3.6075 m 5.8773,-3.1766 c 1.7868,-0.9806 3.5947,-1.9206 5.4237,-2.8201 l -0.2297,-0.4653 c -1.8292,0.9153 -3.6395,1.8668 -5.4306,2.8545 m 5.6603,-2.3892 c 1.5094,-0.7367 3.012,-1.487 4.5078,-2.251 l -0.2714,-0.5162 c -1.4769,0.7903 -2.9656,1.5576 -4.4661,2.3019 m 4.7375,-1.7857 c 1.1109,-0.5593 2.1833,-1.184 3.2174,-1.874 l -0.4048,-0.5622 c -0.9818,0.7134 -2.0098,1.3534 -3.084,1.92 m 3.4888,-1.3578 c 0.5537,-0.3729 1.0765,-0.7846 1.5682,-1.2353 0.1171,-0.1123 0.2295,-0.229 0.3374,-0.3502 l -0.6528,-0.5255 c -0.0853,0.1152 -0.176,0.2259 -0.2722,0.3322 -0.426,0.4456 -0.8878,0.8511 -1.3854,1.2166 m 2.3104,-1.0233 c 0.1891,-0.2085 0.3334,-0.4438 0.4329,-0.7059 0.0764,-0.2317 0.0799,-0.4641 0.0105,-0.6972 -0.0255,-0.072 -0.0578,-0.1408 -0.0967,-0.2065 l -0.7853,0.4832 c 0.0287,0.0555 0.0323,0.1142 0.0106,0.1761 -0.0511,0.1536 -0.1261,0.2952 -0.2248,0.4248 m 0.9995,-1.0841 c -0.0777,-0.1176 -0.1729,-0.2188 -0.2858,-0.3036 -0.095,-0.0674 -0.1951,-0.126 -0.3004,-0.1759 -0.4561,-0.185 -0.9295,-0.3056 -1.4202,-0.3618 l -0.1378,0.8462 c 0.3385,0.0592 0.6691,0.147 0.9918,0.2632 0.0701,0.0278 0.1384,0.0593 0.205,0.0945 0.0612,0.0312 0.1152,0.0714 0.1621,0.1206 m -1.2211,-1.3245 c -1.3798,-0.1519 -2.7643,-0.2189 -4.1535,-0.201 l -0.0128,0.6872 c 1.3514,0.0322 2.6943,0.1522 4.0285,0.36 m -4.0157,-1.0472 c -2.1612,0.0256 -4.3163,0.1565 -6.4654,0.3926 l 0.0511,0.5289 c 2.1297,-0.2057 4.2635,-0.2838 6.4015,-0.2343 m -6.4526,-0.2946 c -2.6382,0.282 -5.2612,0.6677 -7.8691,1.157 l 0.0851,0.4583 c 2.5953,-0.4807 5.207,-0.8428 7.8351,-1.0864 m -7.9202,0.6281 c -2.7364,0.5127 -5.4611,1.0816 -8.1741,1.7068 l 0.1022,0.443 c 2.7068,-0.6229 5.4257,-1.1867 8.157,-1.6915 m -8.2592,1.2485 c -2.5379,0.5882 -5.0866,1.1247 -7.6462,1.6095 l 0.0863,0.4572 c 2.5641,-0.4937 5.1181,-1.035 7.6621,-1.6237 m -7.7484,1.1665 c -2.1944,0.4152 -4.4003,0.7556 -6.6176,1.0212 l 0.0587,0.4933 c 2.2264,-0.2808 4.4415,-0.6332 6.6452,-1.0573 m -6.7039,0.564 c -1.755,0.2067 -3.5133,0.3809 -5.2747,0.5224 l 0.0507,0.5702 c 1.7628,-0.1827 3.5237,-0.3824 5.2827,-0.5993 m -5.3334,0.0291 c -1.1768,0.0901 -2.3536,0.1784 -3.5306,0.2649 l 0.0846,0.7333 c 1.1618,-0.1722 2.3274,-0.3149 3.4967,-0.428 m -3.5813,-0.3053 c -0.5115,0.0304 -1.0194,0.0892 -1.5238,0.1763 -0.0967,0.02 -0.1919,0.0457 -0.2856,0.077 l 0.3711,0.8535 c 0.0622,-0.0355 0.1274,-0.0644 0.1958,-0.0866 0.4351,-0.1276 0.8775,-0.2232 1.3271,-0.2869 m -1.894,-0.48 c -0.1651,0.0676 -0.2833,0.1827 -0.3545,0.3454 -0.0397,0.1238 -0.0416,0.2483 -0.006,0.3734 0.0323,0.0886 0.0785,0.1692 0.1388,0.2419 0.0499,0.0556 0.1041,0.1068 0.1626,0.1534 0.2607,0.1828 0.5386,0.3353 0.8335,0.4577 l 0.4051,-0.8715 c -0.2346,-0.108 -0.4569,-0.2362 -0.6671,-0.3847 m 0.262,1.2562 c 1.3826,0.5404 2.7926,0.999 4.2302,1.3756 l 0.2257,-0.7524 c -1.3797,-0.4207 -2.73,-0.9189 -4.0508,-1.4947 m 3.8251,2.2471 c 2.6108,0.6984 5.2405,1.3168 7.8894,1.8552 l 0.1182,-0.5367 c -2.6207,-0.5912 -5.2146,-1.2815 -7.7819,-2.0709 m 7.6637,2.6076 c 3.6047,0.7447 7.219,1.4396 10.8429,2.0849 l 0.0752,-0.4175 c -3.6174,-0.6495 -7.2174,-1.3842 -10.7999,-2.2041 m 10.7247,2.6216 c 4.0401,0.7206 8.0896,1.3838 12.1485,1.9895 l 0.0604,-0.4045 c -4.0546,-0.6068 -8.0992,-1.2743 -12.1337,-2.0025 m 12.0733,2.407 c 3.9955,0.596 7.9937,1.1738 11.9945,1.7332 l 0.0566,-0.4067 c -3.9999,-0.5566 -7.9968,-1.1336 -11.9907,-1.731 m 11.9341,2.1377 c 3.5725,0.5038 7.1556,0.9138 10.7494,1.23 l 0.0356,-0.4252 c -3.587,-0.3073 -7.1631,-0.7111 -10.7284,-1.2115 m 10.6928,1.6367 c 3.078,0.2636 6.1601,0.4647 9.2462,0.6031 l 0.0187,-0.4438 c -3.0802,-0.134 -6.1567,-0.3289 -9.2293,-0.5845 m 9.2106,1.0283 c 2.4318,0.1069 4.8644,0.1919 7.2977,0.2549 l 0.006,-0.5247 c -2.4293,-0.009 -4.8576,-0.0668 -7.2848,-0.174 m 7.279,0.6987 c 1.5819,0.0367 3.1637,0.0771 4.7453,0.1211 l 0.0169,-0.6019 c -1.5852,-0.0354 -3.1707,-0.05 -4.7564,-0.0439 m 4.7395,0.6458 c 0.9648,0.0183 1.9238,0.0998 2.8772,0.2444 l 0.1021,-0.5958 c -0.9815,-0.1493 -1.969,-0.2328 -2.9624,-0.2505 m 3.2136,0.5484 c 0,-0.1669 -0.1353,-0.3022 -0.3022,-0.3022 -0.1669,0 -0.3022,0.1353 -0.3022,0.3022 0,0.1669 0.1353,0.3022 0.3022,0.3022 0.1669,0 0.3022,-0.1353 0.3022,-0.3022 z"
         style="fill:#000000;fill-opacity:1;fill-rule:nonzero;stroke:none"
         id="path4666"
         inkscape:connector-curvature="0" /><g
         id="g4668"
         transform="matrix(0.5454545,0,0,-0.5454545,0,792)" /></g></g></svg>